PathFileType	4	(X/Y/Z)	C:\MyCloud\GitHub\OpenSimScripting\Matlab\Data\Gait2354_Simbody\Hip_Kinetic_SLOW_Crop_Marker.trc	
DataRate	CameraRate	NumFrames	NumMarkers	Units	OrigDataRate	OrigDataStartFrame	OrigNumFrames
100	100	8	34	mm	100	2010	1050
Frame#	Time	Torso2			Torso3			Torso4			Hip1			Hip2			LThigh1			LThigh2			LThigh3			LThigh4			RThigh1			RThigh2			RThigh3			RThigh4			RTibia1			RTibia2			RTibia3			RTibia4			LTibia1			LTibia2			LTibia3			LTibia4			LFoot1			LFoot2			LFoot3			LFoot4			RFoot1			RFoot2			RFoot3			RFoot4			C7			Torso5			C_31			C_32			C_33			
		X1	Y1	Z1	X2	Y2	Z2	X3	Y3	Z3	X4	Y4	Z4	X5	Y5	Z5	X6	Y6	Z6	X7	Y7	Z7	X8	Y8	Z8	X9	Y9	Z9	X10	Y10	Z10	X11	Y11	Z11	X12	Y12	Z12	X13	Y13	Z13	X14	Y14	Z14	X15	Y15	Z15	X16	Y16	Z16	X17	Y17	Z17	X18	Y18	Z18	X19	Y19	Z19	X20	Y20	Z20	X21	Y21	Z21	X22	Y22	Z22	X23	Y23	Z23	X24	Y24	Z24	X25	Y25	Z25	X26	Y26	Z26	X27	Y27	Z27	X28	Y28	Z28	X29	Y29	Z29	X30	Y30	Z30	X31	Y31	Z31	X32	Y32	Z32	X33	Y33	Z33	X34	Y34	Z34	

2010	0.01000	559.16010	-284.95258	-1124.42322	524.95178	-292.27664	-1065.40002	587.88983	-434.84253	-1172.57495	266.88422	-455.55478	-821.23468	246.68857	-140.87433	-852.90686	141.56474	-507.59500	-785.68628	128.87650	-534.51880	-399.24417	140.17233	-392.27640	-390.09006	234.66719	-486.73947	-656.09839	155.96739	-114.88765	-780.47986	130.05980	-98.13432	-399.07495	116.61864	-238.36288	-379.45770	208.29616	-144.19302	-488.79041	95.22394	-82.68530	-345.43961	43.74924	-95.22118	63.20973	84.51916	-183.78043	49.20286	155.28654	-119.34209	-310.27655	94.61458	-548.20532	-360.81268	28.62743	-548.20331	53.54644	79.36815	-462.99701	43.85807	148.19643	-516.76239	-311.83301	7.37194	-487.10782	28.64254	95.65392	-582.50909	163.60130	190.89772	-530.45319	196.22676	148.98108	-479.03461	171.63187	11.42963	-152.47769	29.90094	116.39471	-59.43046	150.47873	192.25954	-107.17943	194.68803	150.07361	-159.33820	180.21767	553.54883	-304.86026	-1306.30164	573.51031	-146.92351	-1188.05078	0.00000	0.00000	0.00000	0.00000	0.00000	0.00000	0.00000	0.00000	0.00000	
2011	0.02000	559.03198	-284.94095	-1124.45483	524.82037	-292.27176	-1065.44897	587.76166	-434.91891	-1172.57666	266.75900	-455.51089	-821.21722	246.66263	-140.82523	-852.94537	141.60057	-507.57495	-785.68854	128.31055	-535.63196	-400.10690	140.10440	-392.26978	-390.08307	234.54666	-486.67911	-656.09894	155.94913	-114.80276	-780.52728	129.85284	-98.06354	-398.97906	116.58831	-238.33299	-379.44992	208.20087	-144.10886	-488.80731	95.11227	-82.66717	-345.43927	43.72504	-95.17321	63.19755	84.39778	-183.71257	49.21322	155.18004	-119.32915	-310.30048	94.59053	-548.25958	-360.83640	28.57905	-548.21332	53.50826	79.36425	-462.98087	43.87124	148.03189	-516.78094	-311.85770	7.42183	-487.02936	28.62279	95.45364	-582.47968	163.65114	190.84000	-530.48328	196.23553	148.93993	-479.08374	171.61105	11.38594	-152.49704	29.91753	116.41181	-59.43209	150.49515	192.18475	-107.10635	194.68759	149.83049	-159.19690	180.33247	553.45184	-304.80200	-1306.42981	573.38824	-146.88461	-1188.12903	0.00000	0.00000	0.00000	0.00000	0.00000	0.00000	0.00000	0.00000	0.00000	
2012	0.03000	559.02081	-284.99173	-1124.47620	524.80548	-292.29620	-1065.45862	587.75885	-434.94324	-1172.58740	266.89706	-455.53848	-821.19965	246.63478	-140.83694	-852.94397	141.53038	-507.60175	-785.67474	128.86790	-534.20941	-399.02139	140.09973	-392.29446	-390.04803	234.63797	-486.62143	-656.01520	155.96262	-114.82298	-780.53418	129.87555	-98.06388	-398.97873	116.55994	-238.35126	-379.46237	208.31998	-144.02576	-488.74081	95.10526	-82.66036	-345.40024	43.71259	-95.21997	63.22370	84.42924	-183.77028	49.26603	155.28966	-119.26337	-310.25668	94.49271	-548.17285	-360.79761	28.62237	-548.17688	53.63975	79.34332	-463.01501	43.88414	148.09055	-516.77252	-311.83527	7.38955	-487.07382	28.65394	96.31082	-582.48718	162.86958	190.83977	-530.55585	196.21542	148.97725	-479.12402	171.58896	11.32307	-152.47707	29.92536	116.42007	-59.40940	150.50069	192.19392	-107.10049	194.71831	149.86452	-159.19203	180.36481	553.41302	-304.97177	-1306.44397	573.36353	-146.92943	-1188.20544	0.00000	0.00000	0.00000	0.00000	0.00000	0.00000	0.00000	0.00000	0.00000	
2013	0.04000	558.95789	-284.99713	-1124.49353	524.77753	-292.34061	-1065.48450	587.77863	-434.99979	-1172.60791	266.94659	-455.53210	-821.20966	246.65561	-140.81218	-852.93451	141.55289	-507.56573	-785.64331	128.33447	-535.41608	-400.02875	140.10272	-392.24115	-390.04147	234.64458	-486.54755	-655.96136	155.93698	-114.85361	-780.49341	129.93890	-98.07614	-398.98700	116.62083	-238.27089	-379.43127	208.26959	-144.03250	-488.74841	95.11456	-82.66351	-345.38989	43.69902	-95.22503	63.24030	84.53171	-183.76778	49.28234	155.30447	-119.28143	-310.26663	94.56414	-548.20551	-360.83746	28.60537	-548.16571	53.61457	79.36344	-463.01398	43.88262	148.10960	-516.75153	-311.82303	7.34393	-487.11737	28.63758	96.41462	-582.52728	162.88516	190.88860	-530.55194	196.21367	149.00941	-479.10767	171.60779	11.45539	-152.43010	29.91000	116.34802	-59.39908	150.53264	192.21255	-107.07949	194.76691	149.91844	-159.22632	180.38719	553.49237	-305.02386	-1306.53162	573.33313	-146.96736	-1188.28540	0.00000	0.00000	0.00000	0.00000	0.00000	0.00000	0.00000	0.00000	0.00000	
2014	0.05000	558.89001	-284.98727	-1124.52539	524.67578	-292.35837	-1065.56226	587.71277	-435.01880	-1172.62878	266.86816	-455.56174	-821.22168	246.61702	-140.78108	-852.92474	141.55144	-507.62119	-785.66913	128.30403	-535.47992	-400.07330	140.06088	-392.27148	-390.06116	234.59079	-486.60129	-655.99731	155.92496	-114.77401	-780.49530	129.77144	-98.04819	-398.89197	116.60899	-238.28119	-379.41376	208.12566	-144.04675	-488.78833	95.05627	-82.63286	-345.41568	43.66777	-95.16373	63.23494	84.41332	-183.70804	49.28933	155.20457	-119.27198	-310.27017	94.51752	-548.19910	-360.79703	28.53482	-548.23108	53.55757	79.33279	-463.00650	43.87577	147.98055	-516.80615	-311.88092	7.41202	-487.04245	28.61341	95.64079	-582.51221	163.48727	190.85228	-530.53937	196.23251	148.98584	-479.12341	171.62308	11.47286	-152.53604	29.89392	116.33587	-59.40459	150.52068	192.13527	-107.03583	194.77766	149.87056	-159.15945	180.37697	553.37701	-304.99933	-1306.55823	573.20831	-146.91870	-1188.36987	0.00000	0.00000	0.00000	0.00000	0.00000	0.00000	0.00000	0.00000	0.00000	
2015	0.06000	558.86694	-285.03156	-1124.53870	524.65991	-292.34943	-1065.56897	587.74536	-435.04108	-1172.63538	266.83426	-455.51822	-821.15839	246.57675	-140.79900	-852.88477	141.51460	-507.61307	-785.68719	128.25006	-535.54034	-400.13913	140.03026	-392.29089	-390.01923	234.54657	-486.54337	-655.88715	155.92293	-114.76747	-780.44293	129.81145	-98.03483	-398.90027	116.54156	-238.39702	-379.44388	208.19565	-144.00006	-488.68698	95.01471	-82.62869	-345.36694	43.67337	-95.16247	63.26822	84.42017	-183.70224	49.30814	155.21999	-119.27020	-310.22842	94.43096	-548.15143	-360.78131	28.65440	-548.26367	53.63411	79.37090	-462.98343	43.90911	148.02843	-516.79169	-311.80646	7.41747	-487.08270	28.67014	95.56097	-582.52356	163.57387	190.82193	-530.52081	196.27768	148.94760	-479.11209	171.65329	11.36113	-152.50125	29.93909	116.32632	-59.39026	150.56808	192.08890	-107.03912	194.83388	149.70764	-159.06784	180.50066	553.31451	-305.09061	-1306.53015	573.11548	-146.94550	-1188.41187	0.00000	0.00000	0.00000	0.00000	0.00000	0.00000	0.00000	0.00000	0.00000	
2016	0.07000	558.89905	-285.04330	-1124.57495	524.73956	-292.32480	-1065.57422	587.72620	-435.09256	-1172.57983	266.89682	-455.50766	-821.16754	246.62903	-140.78558	-852.88837	141.47240	-507.62878	-785.65076	128.31097	-535.27039	-399.98184	140.04570	-392.26202	-390.00262	234.66887	-486.49496	-655.86115	155.96004	-114.80221	-780.41510	129.93106	-98.08527	-398.96729	116.59649	-238.32463	-379.38770	208.31502	-143.97440	-488.63208	95.06992	-82.64754	-345.37112	43.70698	-95.20133	63.27879	84.54495	-183.71709	49.33405	155.23380	-119.25786	-310.20432	94.49834	-548.16040	-360.78751	28.53100	-548.20270	53.61293	79.43855	-462.95831	43.92999	148.10576	-516.73859	-311.79385	7.41816	-487.10352	28.66071	95.72317	-582.53668	163.58316	190.88521	-530.49951	196.28241	149.00044	-479.08975	171.65906	11.48822	-152.48274	29.94010	116.35442	-59.33318	150.57422	192.16553	-107.00900	194.84425	150.01543	-159.22144	180.45546	553.40521	-305.23306	-1306.51428	573.15570	-147.00703	-1188.48718	0.00000	0.00000	0.00000	0.00000	0.00000	0.00000	0.00000	0.00000	0.00000	
2017	0.08000	558.82745	-285.02856	-1124.57996	524.66913	-292.34573	-1065.61511	587.68262	-435.10059	-1172.58582	266.77802	-455.51840	-821.13501	246.56732	-140.76736	-852.85663	141.45703	-507.70721	-785.67004	128.31898	-535.49969	-400.05966	139.96313	-392.23282	-389.97968	234.61728	-486.45255	-655.79700	155.89484	-114.77398	-780.39551	129.77965	-98.02067	-398.83740	116.52090	-238.29228	-379.33994	208.09900	-144.08159	-488.66214	94.96867	-82.62785	-345.33215	43.62466	-95.15520	63.28716	84.49094	-183.69595	49.36122	155.18120	-119.20432	-310.18890	94.50983	-548.22638	-360.74997	28.54075	-548.19543	53.61377	79.33637	-462.96405	43.92179	147.98172	-516.75574	-311.79102	7.38329	-487.12393	28.66423	95.69228	-582.48077	163.58620	190.84215	-530.44305	196.32568	148.96149	-479.04379	171.69458	11.49631	-152.50331	29.94966	116.26915	-59.34433	150.60623	192.10190	-106.98395	194.86852	150.07777	-159.27116	180.41158	553.36749	-305.21909	-1306.53772	573.06549	-146.99738	-1188.54553	0.00000	0.00000	0.00000	0.00000	0.00000	0.00000	0.00000	0.00000	0.00000	
